<svg xmlns="http://www.w3.org/2000/svg" width="1200" height="630" viewBox="0 0 1200 630">
  <defs>
    <linearGradient id="bg" x1="0" y1="0" x2="1" y2="1">
      <stop offset="0%" style="stop-color:#0a0a0f"/>
      <stop offset="50%" style="stop-color:#0d1117"/>
      <stop offset="100%" style="stop-color:#0a0e1a"/>
    </linearGradient>
    <linearGradient id="accent" x1="0" y1="0" x2="1" y2="0">
      <stop offset="0%" style="stop-color:#22d3ee"/>
      <stop offset="100%" style="stop-color:#06b6d4"/>
    </linearGradient>
  </defs>

  <!-- Background -->
  <rect width="1200" height="630" fill="url(#bg)"/>

  <!-- Subtle grid -->
  <g opacity="0.03" stroke="#22d3ee" stroke-width="0.5">
    <line x1="0" y1="0" x2="0" y2="630" transform="translate(100,0)"/>
    <line x1="0" y1="0" x2="0" y2="630" transform="translate(200,0)"/>
    <line x1="0" y1="0" x2="0" y2="630" transform="translate(300,0)"/>
    <line x1="0" y1="0" x2="0" y2="630" transform="translate(400,0)"/>
    <line x1="0" y1="0" x2="0" y2="630" transform="translate(500,0)"/>
    <line x1="0" y1="0" x2="0" y2="630" transform="translate(600,0)"/>
    <line x1="0" y1="0" x2="0" y2="630" transform="translate(700,0)"/>
    <line x1="0" y1="0" x2="0" y2="630" transform="translate(800,0)"/>
    <line x1="0" y1="0" x2="0" y2="630" transform="translate(900,0)"/>
    <line x1="0" y1="0" x2="0" y2="630" transform="translate(1000,0)"/>
    <line x1="0" y1="0" x2="0" y2="630" transform="translate(1100,0)"/>
    <line x1="0" y1="0" x2="1200" y2="0" transform="translate(0,100)"/>
    <line x1="0" y1="0" x2="1200" y2="0" transform="translate(0,200)"/>
    <line x1="0" y1="0" x2="1200" y2="0" transform="translate(0,300)"/>
    <line x1="0" y1="0" x2="1200" y2="0" transform="translate(0,400)"/>
    <line x1="0" y1="0" x2="1200" y2="0" transform="translate(0,500)"/>
  </g>

  <!-- Glow accent line -->
  <rect x="80" y="155" width="60" height="3" rx="1.5" fill="url(#accent)" opacity="0.8"/>

  <!-- KANDIGA label -->
  <text x="80" y="130" fill="#22d3ee" font-family="monospace" font-size="18" font-weight="bold" letter-spacing="6" opacity="0.9">KANDIGA</text>

  <!-- Main headline -->
  <text x="80" y="230" fill="#e8eaed" font-family="system-ui, -apple-system, sans-serif" font-size="56" font-weight="800" letter-spacing="-1">122B Parameters.</text>
  <text x="80" y="300" fill="#e8eaed" font-family="system-ui, -apple-system, sans-serif" font-size="56" font-weight="800" letter-spacing="-1">2.7GB RAM.</text>
  <text x="80" y="370" fill="#22d3ee" font-family="system-ui, -apple-system, sans-serif" font-size="56" font-weight="800" letter-spacing="-1">One Mac.</text>

  <!-- Subtitle -->
  <text x="80" y="420" fill="#8b949e" font-family="system-ui, sans-serif" font-size="20">4B routing + 35B writing + 122B reasoning = 5.5GB total</text>

  <!-- Bottom stats bar -->
  <rect x="0" y="520" width="1200" height="110" fill="#0d1117" opacity="0.7"/>
  <line x1="0" y1="520" x2="1200" y2="520" stroke="#22d3ee" stroke-width="1" opacity="0.15"/>

  <text x="120" y="565" fill="#22d3ee" font-family="monospace" font-size="28" font-weight="bold">95%</text>
  <text x="120" y="592" fill="#8b949e" font-family="system-ui, sans-serif" font-size="14">accuracy</text>

  <text x="340" y="565" fill="#e8eaed" font-family="monospace" font-size="28" font-weight="bold">44</text>
  <text x="340" y="592" fill="#8b949e" font-family="system-ui, sans-serif" font-size="14">turns</text>

  <text x="520" y="565" fill="#e8eaed" font-family="monospace" font-size="28" font-weight="bold">3.1s</text>
  <text x="520" y="592" fill="#8b949e" font-family="system-ui, sans-serif" font-size="14">per turn</text>

  <text x="720" y="565" fill="#e8eaed" font-family="monospace" font-size="28" font-weight="bold">3-bit</text>
  <text x="720" y="592" fill="#8b949e" font-family="system-ui, sans-serif" font-size="14">quantization</text>

  <text x="940" y="565" fill="#e8eaed" font-family="monospace" font-size="28" font-weight="bold">Open Source</text>
  <text x="940" y="592" fill="#8b949e" font-family="system-ui, sans-serif" font-size="14">Apache 2.0</text>
</svg>
